# xmcd
#
# Track frame offsets: 
#        150
#        7740
#        17386
#        29127
#        44995
#        56725
#        68695
#        85985
#        95527
#        113995
#        121036
#        129770
#        161195
#        168487
#        179292
#        189578
#
# Disc length: 2691 seconds
#
# Revision: 0
# Processed by: cddbd v1.5.2PL0 Copyright (c) Steve Scherf et al.
# Submitted via: ExactAudioCopy v0.99pb4
#
DISCID=d20a8110
DTITLE=Сезон пива - 20 сигарет
DYEAR=2005
DGENRE=
TTITLE0=20 сигарет
TTITLE1=пильной блюз
TTITLE2=6 утра
TTITLE3=2 дня
TTITLE4=суббота
TTITLE5=75-2000
TTITLE6=блюз дорог
TTITLE7=блюз чистых ботинок
TTITLE8=дым
TTITLE9=если хочешь
TTITLE10=петрович IV (в городе)
TTITLE11=лунный свет
TTITLE12=blue suede shoes
TTITLE13=that's all right mama
TTITLE14=runaway
TTITLE15=highway to hell
EXTD=
EXTT0=
EXTT1=
EXTT2=
EXTT3=
EXTT4=
EXTT5=
EXTT6=
EXTT7=
EXTT8=
EXTT9=
EXTT10=
EXTT11=
EXTT12=
EXTT13=
EXTT14=
EXTT15=
PLAYORDER=
